<?xml version="1.0" standalone="no"?>
<!DOCTYPE svg PUBLIC "-//W3C//DTD SVG 20010904//EN"
 "http://www.w3.org/TR/2001/REC-SVG-20010904/DTD/svg10.dtd">
<svg version="1.0" xmlns="http://www.w3.org/2000/svg"
 width="1440.000000pt" height="1440.000000pt" viewBox="0 0 1440.000000 1440.000000"
 preserveAspectRatio="xMidYMid meet">
<metadata>
Created by potrace 1.14, written by Peter Selinger 2001-2017
</metadata>
<g transform="translate(0.000000,1440.000000) scale(0.100000,-0.100000)"
fill="#000000" stroke="none">
<path d="M9741 9207 c-6 -19 -13 -43 -16 -53 -2 -10 -24 -95 -50 -189 -26 -93
-48 -177 -50 -185 -2 -8 -4 -16 -5 -17 -2 -2 -3 -6 -4 -10 -1 -5 -10 -35 -20
-68 -10 -33 -20 -70 -22 -81 -2 -12 -10 -37 -18 -55 -8 -19 -15 -38 -15 -44
-1 -5 -13 -48 -27 -95 -15 -47 -27 -89 -29 -95 -1 -5 -5 -17 -8 -25 -19 -48
-70 -199 -74 -222 -3 -16 -10 -28 -16 -28 -6 0 -8 -3 -4 -6 3 -3 1 -18 -5 -33
-12 -31 -118 -332 -122 -346 -3 -10 -8 -24 -29 -80 -6 -16 -13 -34 -14 -40 -3
-17 -103 -299 -112 -320 -8 -16 -31 -83 -36 -105 -1 -3 -4 -12 -8 -20 -3 -8
-18 -51 -33 -95 -14 -44 -31 -86 -36 -92 -6 -7 -8 -13 -4 -13 3 0 -3 -22 -14
-50 l-20 -50 23 -1 c103 -4 1558 -1 1563 3 3 3 -1 21 -9 39 -8 19 -15 39 -17
44 -1 6 -4 15 -5 20 -7 23 -57 172 -64 190 -7 18 -47 135 -55 160 -2 6 -6 17
-9 25 -10 26 -89 261 -91 273 -2 7 -8 23 -13 37 -6 14 -29 81 -52 150 -23 69
-45 132 -48 140 -3 8 -7 17 -8 20 -1 3 -4 12 -8 20 -7 20 -40 122 -43 135 -1
6 -9 27 -18 48 -9 20 -13 37 -10 37 4 0 2 6 -3 13 -6 6 -21 44 -33 82 -12 39
-25 75 -29 80 -3 6 -6 15 -8 20 -7 34 -14 56 -33 110 -11 33 -21 61 -21 62 0
2 -1 8 -4 15 -3 12 -42 154 -50 188 -3 8 -14 49 -25 90 -12 41 -23 82 -25 90
-2 8 -4 15 -5 15 -1 0 -3 9 -5 20 -2 11 -15 65 -30 120 -14 55 -28 109 -30
120 -14 83 -29 100 -44 52z"/>
<path d="M986 9181 c-2 -3 -3 -180 -3 -394 1 -252 -1 -387 -8 -387 -7 0 -7 -3
0 -8 6 -4 10 -55 10 -117 0 -62 -4 -113 -10 -117 -7 -5 -7 -8 0 -8 6 0 10 -87
10 -240 0 -153 -4 -240 -10 -240 -5 0 -5 -4 2 -8 15 -9 1473 -7 1543 3 30 4
66 9 80 11 123 15 298 83 394 154 35 26 132 124 153 155 57 83 94 180 120 315
17 88 5 296 -21 385 -49 166 -180 325 -328 398 -43 21 -81 38 -85 39 -4 0 -23
6 -41 13 -17 8 -58 19 -90 25 -31 6 -68 14 -82 17 -36 7 -1630 12 -1634 4z"/>
<path d="M12818 8392 l-28 -3 0 -325 c0 -178 3 -324 8 -324 7 0 52 65 52 75 0
21 141 203 223 286 49 51 180 159 192 159 4 0 20 11 35 24 16 13 69 41 119 62
50 21 91 41 91 44 0 5 -645 7 -692 2z"/>
<path d="M5988 7995 c-2 -2 -28 -6 -58 -9 -30 -4 -73 -11 -95 -17 -22 -5 -49
-12 -60 -14 -34 -8 -127 -47 -185 -78 -105 -56 -223 -157 -300 -257 -19 -25
-37 -47 -40 -50 -25 -24 -120 -221 -153 -320 -26 -77 -55 -197 -63 -260 -2
-19 -6 -49 -9 -66 l-4 -30 1037 0 1037 1 0 40 c-1 66 -17 197 -32 255 -3 14
-8 32 -10 40 -2 8 -5 25 -6 37 -1 13 -5 23 -9 23 -4 0 -10 17 -14 38 -4 20
-10 42 -14 47 -5 6 -9 13 -10 17 0 4 -7 23 -15 42 -8 20 -15 39 -15 44 0 5 -7
15 -15 22 -8 6 -13 15 -12 18 4 14 -97 154 -156 215 -77 80 -119 111 -223 165
-62 32 -171 66 -264 83 -55 10 -305 21 -312 14z"/>
<path d="M1002 7102 c-19 -3 -22 -8 -18 -33 2 -16 0 -31 -4 -34 -5 -3 -7 -12
-3 -21 10 -27 9 -534 -2 -534 -7 0 -7 -3 0 -8 6 -4 10 -55 10 -117 0 -62 -4
-113 -10 -117 -7 -5 -7 -8 0 -8 6 0 10 -124 10 -352 0 -224 -4 -356 -10 -360
-7 -5 -6 -8 1 -8 6 0 9 -19 6 -50 -4 -61 -12 -59 213 -57 94 1 180 -1 191 -5
12 -4 25 -4 28 -1 9 9 427 10 453 1 12 -4 24 -4 27 0 2 4 46 6 98 4 119 -3
103 -3 176 1 38 2 62 -1 62 -8 0 -7 3 -7 8 0 6 9 85 12 117 5 6 -1 12 -2 15
-1 3 1 70 4 150 6 130 2 178 6 260 20 136 24 265 73 366 140 61 41 153 131
195 191 45 66 92 174 99 229 1 6 5 15 9 20 4 6 6 20 5 33 0 12 2 22 6 22 9 0
6 303 -4 343 -3 15 -8 37 -10 50 -19 98 -74 223 -131 296 -153 199 -435 330
-743 347 -113 6 -1531 11 -1570 6z"/>
</g>
</svg>
