<svg id="Capa_1" data-name="Capa 1" xmlns="http://www.w3.org/2000/svg" viewBox="0 0 1380 508"><path d="M1323.56,138.65A99.57,99.57,0,0,0,1294.19,153q-26.75,19-43.46,50.48h-2V138.65Z"/><path d="M297.36,133.3q0,38.12-24.4,58.51t-68.54,20.4H68V59.07H212.44q40.13,0,62.52,19.4T297.36,133.3Z"/><path d="M316.76,356.65q0,35.44-22.07,56.17-24.76,24.74-74.89,24.74H68V267.71H215.78q44.15,0,72.56,22.07T316.76,356.65Z"/><path d="M679.85,288.44h-208a168,168,0,0,1,10.69-44.14A114.12,114.12,0,0,1,504,209.53a95.65,95.65,0,0,1,32.1-23.07q18.7-8.36,42.8-8.36,46.79,0,72.55,29.09T679.85,288.44Z"/><path d="M1024.05,299.14H864.9l48.81-139.09q6-17.38,11.37-36.11t10-34.11q4.67-18,9.36-35.44h2q4,17.4,8.69,34.78,4,15.39,9.37,34.1t12,36.78Z"/></svg>