<svg viewBox="0 0 1440 900"><g data-name="Capa 2"><path d="M30 192.42h214q76.91 0 119 42.12A122.4 122.4 0 0 1 387.42 272q9 21.4 9 48.82 0 40.79-22.07 66.87t-62.19 37.44v2A176 176 0 0 1 354 442.51a123.88 123.88 0 0 1 33.1 25.08 107.91 107.91 0 0 1 21.73 34.77q7.68 19.73 7.69 44.47 0 30.09-10 54.5a128.29 128.29 0 0 1-28.09 42.46q-21.4 22.07-52.82 34.1t-71.55 12H30Zm204.62 212q44.14 0 68.54-20.39t24.41-58.51q0-35.44-22.4-54.83t-62.52-19.4H98.21v153.1ZM250 629.75q50.16 0 74.9-24.75 22.1-20.71 22.1-56.17Q347 504 318.54 482T246 459.9H98.21v169.85ZM612.43 700q-41.48 0-73.89-14.71a161.43 161.43 0 0 1-55.17-40.46 174.42 174.42 0 0 1-34.44-60.18q-11.7-34.44-11.7-73.89a214.9 214.9 0 0 1 12.37-73.26q12.38-34.44 34.77-60.19a160.25 160.25 0 0 1 54.17-40.45q31.76-14.7 70.55-14.72 40.13 0 70.88 14.72a150.84 150.84 0 0 1 52.16 40.79q22.07 26.75 33.1 64.19t11 83.59H500.76a189.76 189.76 0 0 0 10 48.81 125.38 125.38 0 0 0 22.07 39.46A98.05 98.05 0 0 0 567 639.78q20.06 9.38 46.14 9.36 37.44 0 61.85-16.38t33.1-45.14h60.86q-12 50.14-53.16 81.25T612.43 700Zm-3.34-329.67q-24.08 0-42.8 8.36a95.56 95.56 0 0 0-32.1 23.07 114.12 114.12 0 0 0-21.4 34.77 168 168 0 0 0-10.69 44.14h208q-2.68-52.17-28.42-81.25t-72.59-29.13ZM937.24 192.42h76.23l183.22 497.51h-74.89l-49.49-145.11H876.39l-50.83 145.11h-70.21Zm-42.13 298.91h159.15l-47.48-139.09q-6.69-18.06-12-36.78t-9.37-34.11q-4.68-17.37-8.69-34.77h-2Q970 264 965.32 282q-4.68 15.39-10 34.11t-11.37 36.11ZM1278.93 395.7h2q16.71-31.43 43.47-50.49t62.85-19a64.32 64.32 0 0 1 12.37 1 66.82 66.82 0 0 1 10.37 3V389h-2a76 76 0 0 0-12-2.67 112.33 112.33 0 0 0-13.38-.67 102.9 102.9 0 0 0-39.45 7.69 99 99 0 0 0-32.77 21.73A104.34 104.34 0 0 0 1288 449.2q-8.37 20.06-8.36 45.47v195.26h-62.19V330.84h61.52Z"/></g></svg>