<svg viewBox="0 0 1440 900"><path d="M1353.77 330.84a99.39 99.39 0 0 0-29.36 14.38q-26.76 19-43.47 50.48h-2v-64.86ZM327.58 325.49q0 38.11-24.41 58.51t-68.54 20.4H98.21V251.26h144.44q40.12 0 62.52 19.4t22.41 54.83ZM347 548.83q0 35.46-22.07 56.18-24.78 24.74-74.93 24.74H98.21V459.9H246q44.14 0 72.56 22.06T347 548.83ZM710.06 480.63h-208a168 168 0 0 1 10.7-44.14 113.9 113.9 0 0 1 21.39-34.77 95.65 95.65 0 0 1 32.1-23.07q18.71-8.36 42.8-8.36 46.78 0 72.55 29.09t28.46 81.25ZM1054.26 491.33H895.11l48.81-139.09q6-17.39 11.37-36.11t10-34.11q4.66-18 9.37-35.44h2q4 17.4 8.69 34.77 4 15.4 9.37 34.11t12 36.78Z"/></svg>