<svg id="Capa_1" data-name="Capa 1" xmlns="http://www.w3.org/2000/svg" viewBox="0 0 1380 508"><defs><style>.cls-1{fill:#fff;}.cls-2{fill:lime;}.cls-3{fill:blue;}</style></defs><path class="cls-1" d="M199.49,130.73a64.24,64.24,0,0,0-12.37-1,116,116,0,0,0-33.49,4.68,99.81,99.81,0,0,0-29.37,14.38Q97.52,167.84,80.8,199.27h-2V134.41H17.28V493.5H79.46V298.24q0-25.41,8.36-45.47a104.45,104.45,0,0,1,22.4-34.1,95.24,95.24,0,0,1,7.4-6.69,99.67,99.67,0,0,1,25.37-15,103.12,103.12,0,0,1,39.45-7.69,114.06,114.06,0,0,1,13.37.67,74.91,74.91,0,0,1,12,2.68h2V133.74A66.82,66.82,0,0,0,199.49,130.73Z"/><path class="cls-1" d="M412.51,0H336.28L154.4,497.51h70.21l50.82-145.1H471.36l49.48,145.1h74.9ZM294.15,298.91,343,159.82q6-17.38,11.37-36.11t10-34.1q4.67-18.06,9.36-35.45h2q4,17.41,8.69,34.78,4,15.39,9.36,34.1t12,36.78L453.3,298.91Z"/><path class="cls-2" d="M453.3,298.91H294.15L343,159.82q6-17.38,11.37-36.11t10-34.1q4.67-18.06,9.36-35.45h2q4,17.41,8.69,34.78,4,15.39,9.36,34.1t12,36.78Z"/><path class="cls-1" d="M995.28,309.94a107.87,107.87,0,0,0-21.74-34.77,123.56,123.56,0,0,0-33.1-25.08,176.64,176.64,0,0,0-41.79-15.38v-2q40.13-11.37,62.19-37.45t22.07-66.87q0-27.42-9-48.81a122.28,122.28,0,0,0-24.41-37.45Q907.35,0,830.44,0h-214V497.51h224q40.13,0,71.55-12t52.83-34.11a128.19,128.19,0,0,0,28.09-42.46q10-24.41,10-54.5Q1003,329.69,995.28,309.94ZM684.67,58.85H829.1q40.13,0,62.53,19.39T914,133.07q0,38.12-24.41,58.51T821.08,212H684.67ZM911.35,412.59q-24.74,24.74-74.89,24.74H684.67V267.48H832.45q44.13,0,72.55,22.07t28.42,66.87Q933.42,391.88,911.35,412.59Z"/><path class="cls-3" d="M933.42,356.42q0,35.46-22.07,56.17-24.74,24.74-74.89,24.74H684.67V267.48H832.45q44.13,0,72.55,22.07T933.42,356.42Z"/><path class="cls-3" d="M914,133.07q0,38.12-24.41,58.51T821.08,212H684.67V58.85H829.1q40.13,0,62.53,19.39T914,133.07Z"/><path class="cls-1" d="M1261.41,440.34q-24.42,16.4-61.85,16.38-26.08,0-46.15-9.36a98.14,98.14,0,0,1-34.1-26.08,125.53,125.53,0,0,1-22.07-39.45,189.83,189.83,0,0,1-10-48.82h275.51q0-46.14-11-83.58t-33.1-64.2a150.8,150.8,0,0,0-52.15-40.79q-30.77-14.7-70.89-14.71-38.77,0-70.54,14.71a160.05,160.05,0,0,0-54.17,40.46q-22.41,25.74-34.77,60.18a214.74,214.74,0,0,0-12.37,73.22q0,39.46,11.7,73.89a174.39,174.39,0,0,0,34.44,60.19A161.31,161.31,0,0,0,1125,492.83q32.43,14.7,73.89,14.71,62.19,0,103.31-31.09t53.16-81.25h-60.85Q1285.83,424,1261.41,440.34ZM1099.25,244.08a114,114,0,0,1,21.4-34.78,95.73,95.73,0,0,1,32.1-23.07q18.7-8.35,42.79-8.36,46.8,0,72.56,29.09t28.42,81.25h-208A167.83,167.83,0,0,1,1099.25,244.08Z"/><path class="cls-2" d="M1296.52,288.21h-208a167.83,167.83,0,0,1,10.7-44.13,114,114,0,0,1,21.4-34.78,95.73,95.73,0,0,1,32.1-23.07q18.7-8.35,42.79-8.36,46.8,0,72.56,29.09T1296.52,288.21Z"/><path class="cls-3" d="M153.63,134.41a99.81,99.81,0,0,0-29.37,14.38Q97.52,167.84,80.8,199.27h-2V134.41Z"/></svg>