<svg id="Capa_1" data-name="Capa 1" xmlns="http://www.w3.org/2000/svg" viewBox="0 0 1380 508"><defs><style>.cls-1{fill:lime;}.cls-2{fill:blue;}</style></defs><path class="cls-1" d="M453.3,298.91H294.15L343,159.82q6-17.38,11.37-36.11t10-34.1q4.67-18.06,9.36-35.45h2q4,17.41,8.69,34.78,4,15.39,9.36,34.1t12,36.78Z"/><path class="cls-2" d="M933.42,356.42q0,35.46-22.07,56.17-24.74,24.74-74.89,24.74H684.67V267.48H832.45q44.13,0,72.55,22.07T933.42,356.42Z"/><path class="cls-2" d="M914,133.07q0,38.12-24.41,58.51T821.08,212H684.67V58.85H829.1q40.13,0,62.53,19.39T914,133.07Z"/><path class="cls-1" d="M1296.52,288.21h-208a167.83,167.83,0,0,1,10.7-44.13,114,114,0,0,1,21.4-34.78,95.73,95.73,0,0,1,32.1-23.07q18.7-8.35,42.79-8.36,46.8,0,72.56,29.09T1296.52,288.21Z"/><path class="cls-2" d="M153.63,134.41a99.81,99.81,0,0,0-29.37,14.38Q97.52,167.84,80.8,199.27h-2V134.41Z"/></svg>